<?xml version="1.0" encoding="utf-8"?>
<!DOCTYPE svg PUBLIC "-//W3C//DTD SVG 1.1//EN" "http://www.w3.org/Graphics/SVG/1.1/DTD/svg11.dtd">
<svg  version="1.1" id="Layer_1" xmlns="http://www.w3.org/2000/svg" xmlns:xlink="http://www.w3.org/1999/xlink" width="701.572" height="170.982"
	 viewBox="0 0 701.572 170.982" overflow="visible" enable-background="new 0 0 701.572 170.982" xml:space="preserve">
<g>
	<polygon fill-rule="evenodd" clip-rule="evenodd" fill="#0071BC" points="107.687,132.258 0,132.258 0,138.067 107.687,138.067 
		107.687,132.258 	"/>
	<polygon fill-rule="evenodd" clip-rule="evenodd" fill="#0071BC" points="305.649,138.067 701.572,138.067 701.572,132.258 
		314.032,132.258 305.649,138.067 	"/>
	<path fill-rule="evenodd" clip-rule="evenodd" fill="#F15A22" d="M472.98,27.477c-6.768,16.121-26.76,36.755-33.209,40.302
		c-6.445,3.546-8.704-0.322-5.156-5.48C441.709,51.98,465.568,31.668,472.98,27.477l7.097-3.869c3.867-4.191,2.256-10.963,0-13.541
		c-2.26-2.58-7.097-3.225-14.187,0.967c-7.094,4.191-24.182,17.087-44.173,38.368c-5.482,6.447-10.639,10.638-14.187,13.541
		c-3.545,2.9-5.801,1.289-3.867-1.934c1.934-3.225,7.737-13.865,9.993-19.347c2.256-5.48-2.256-12.896-10.964-8.058
		c-8.705,4.835-23.537,18.054-30.305,22.246c-6.771,4.191-6.448-0.322-3.548-3.225c2.903-2.9,30.308-26.437,36.757-35.788
		c6.448-9.35,1.934-12.251-0.967-15.154c-2.9-2.9-10.965-2.256-17.41,3.547c-6.449,5.804-21.925,19.023-37.079,39.012
		c-3.546,4.191-9.994,7.738-14.507,11.607c4.191-6.125,2.902-12.896,0.643-15.154c-2.256-2.256-19.988-8.058-58.034,42.56
		c-4.514,8.707-18.054,23.538-26.761,15.797c12.574-10.961,36.11-34.498,46.428-50.938l-17.732-2.26
		c-1.613,4.838-17.412,25.794-32.563,40.624c2.9-10.316,9.671-28.371,26.759-43.847c4.514-3.869,7.416-1.611,5.805,3.223
		l17.732,2.26c6.449-9.674,8.06-22.248-0.645-28.696c-8.707-6.449-30.952,3.869-44.172,23.858
		c-13.218,19.99-21.601,39.657-26.759,58.677c-4.191,5.163-11.285,9.675-13.542,3.874c-2.256-5.808,0-11.931,3.869-17.091
		c6.126-6.125,10.64-11.93,14.832-15.797c4.191-3.869,5.16-14.509-2.58-15.476l-9.349,2.9c-4.836,8.061-24.828,29.343-32.563,37.722
		c-7.738,8.386-31.919,31.273-37.724,27.084c-2.9-2.9,1.936-14.831,15.798-28.051c13.865-13.219,38.368-29.984,54.489-36.755
		l9.349-2.9c4.838-2.902,8.707-4.515,13.22-6.771c4.514-2.258,6.771-15.154-7.738-15.154c-20.312,3.224-76.09,15.154-112.202,77.701
		c-14.83,26.44-1.611,36.753,1.936,38.687c3.546,1.941,24.181,11.287,63.193-33.853c-2.58,11.608,3.224,20.962,7.738,20.962
		s13.219-0.645,35.144-20.64c3.869,10.319,23.536,12.253,41.592-8.701c0,12.575,9.994,14.187,12.574,14.187
		c2.578,0,23.214-0.967,38.366-33.529l-11.285-3.873c-5.803,9.029-17.732,21.282-19.666,12.574
		c-1.936-8.701,10.961-22.246,20.31-29.339c-4.191,7.093-2.256,13.542-0.645,16.765l11.285,3.873
		c3.225-3.549,8.385-10.643,11.285-15.801l4.515-1.611c-6.126,12.574-9.996,21.279-12.253,26.758
		c-2.258,5.485,0.967,12.253,3.225,12.897s7.416,0,12.251-5.156c4.836-5.163,25.148-29.341,35.141-39.014
		c3.549-3.547,7.094-2.256,3.871,3.548c-3.223,5.803-7.094,17.412-3.223,21.279c3.867,3.867,13.539,4.512,23.533-6.773
		c3.227-3.867,8.705-6.77,11.931-9.027c-2.256,7.418,5.805,14.189,11.283,13.545c5.482-0.645,20.958-7.418,35.146-23.861
		c-1.934,10.316,10.316,16.121,20.636,9.349c10.316-6.771,68.672-46.106,85.437-60.613c8.061-6.447,1.611-17.087-7.415-11.285
		c-9.027,5.804-60.612,41.592-71.254,48.04c-5.479,3.225-10.316-0.645-6.127-5.803c4.838-4.836,13.221-16.445,9.031-21.923
		c-1.938-2.58-6.449-2.58-9.672-1.291L472.98,27.477L472.98,27.477z"/>
	<polygon fill-rule="evenodd" clip-rule="evenodd" fill="#0071BC" points="412.962,167.349 414.075,170.63 417.437,170.63 
		411.929,155.894 408.607,155.894 403.016,170.63 406.297,170.63 407.45,167.349 408.296,164.932 410.215,159.527 410.259,159.527 
		412.115,164.932 408.296,164.932 407.45,167.349 412.962,167.349 	"/>
	<polygon fill-rule="evenodd" clip-rule="evenodd" fill="#0071BC" points="443.397,155.894 446.639,155.894 446.639,170.63 
		443.397,170.63 443.397,155.894 	"/>
	<path fill-rule="evenodd" clip-rule="evenodd" fill="#0071BC" d="M483.029,158.414h3.548c1.446,0,2.23,0.615,2.23,2.044
		c0,1.486-0.784,2.102-2.23,2.102h-3.548v2.314h3.24c1.63,0,2.227,0.682,2.454,2.227c0.165,1.172,0.124,2.6,0.517,3.53h3.24
		c-0.578-0.827-0.557-2.563-0.619-3.486c-0.102-1.487-0.557-3.032-2.146-3.45v-0.043c1.63-0.66,2.329-1.956,2.329-3.691
		c0-2.227-1.67-4.065-4.311-4.065h-7.943v14.736h3.238V158.414L483.029,158.414z"/>
	<polygon fill-rule="evenodd" clip-rule="evenodd" fill="#0071BC" points="519.837,155.894 523.074,155.894 523.074,167.906 
		530.256,167.906 530.256,170.63 519.837,170.63 519.837,155.894 	"/>
	<polygon fill-rule="evenodd" clip-rule="evenodd" fill="#0071BC" points="557.86,155.894 561.102,155.894 561.102,170.63 
		557.86,170.63 557.86,155.894 	"/>
	<polygon fill-rule="evenodd" clip-rule="evenodd" fill="#0071BC" points="588.45,155.894 591.669,155.894 597.817,165.782 
		597.857,165.782 597.857,155.894 600.891,155.894 600.891,170.63 597.652,170.63 591.522,160.764 591.482,160.764 591.482,170.63 
		588.45,170.63 588.45,155.894 	"/>
	<polygon fill-rule="evenodd" clip-rule="evenodd" fill="#0071BC" points="630.82,155.894 641.84,155.894 641.84,158.619 
		634.062,158.619 634.062,161.776 641.199,161.776 641.199,164.295 634.062,164.295 634.062,167.906 642.005,167.906 
		642.005,170.63 630.82,170.63 630.82,155.894 	"/>
	<path fill-rule="evenodd" clip-rule="evenodd" fill="#0071BC" d="M673.48,165.738c0,1.963,1.527,2.725,3.263,2.725
		c1.136,0,2.868-0.329,2.868-1.839c0-1.589-2.209-1.853-4.373-2.432c-2.189-0.578-4.395-1.428-4.395-4.189
		c0-3.01,2.846-4.46,5.508-4.46c3.072,0,5.899,1.348,5.899,4.746h-3.135c-0.103-1.772-1.362-2.227-2.911-2.227
		c-1.029,0-2.227,0.433-2.227,1.67c0,1.136,0.699,1.282,4.395,2.233c1.073,0.264,4.376,0.945,4.376,4.285
		c0,2.71-2.128,4.731-6.13,4.731c-3.26,0-6.313-1.611-6.273-5.244H673.48L673.48,165.738z"/>
</g>
</svg>
